<svg width="24" height="24" viewBox="0 0 24 24" fill="none" xmlns="http://www.w3.org/2000/svg">
<path d="M8.34375 14.7383H9.53125C9.82179 14.7383 10.0696 14.6358 10.2746 14.4308C10.4797 14.2257 10.5822 13.9779 10.5822 13.6874V12.6377H9.66781V13.6874C9.66781 13.7183 9.65277 13.7488 9.62269 13.7788C9.5926 13.8089 9.56212 13.8244 9.53125 13.8252H8.34375C8.31287 13.8252 8.2824 13.8097 8.25231 13.7788C8.22223 13.748 8.20679 13.7175 8.206 13.6874V11.3124C8.206 11.2815 8.21787 11.2511 8.24162 11.221C8.26379 11.1901 8.29031 11.1747 8.32119 11.1747H10.5584C10.5284 10.915 10.4183 10.6977 10.2283 10.5227C10.0391 10.3486 9.80675 10.2615 9.53125 10.2615H8.34375C8.05321 10.2615 7.80542 10.364 7.60037 10.569C7.39533 10.7741 7.29281 11.0219 7.29281 11.3124V13.6874C7.29281 13.9779 7.39533 14.2257 7.60037 14.4308C7.80542 14.635 8.05321 14.7372 8.34375 14.7372M12.0428 14.7372H12.9572V10.2627H12.0428V14.7372ZM14.4178 14.7372H15.3322V12.9559H17.1134V12.0427H15.3322V11.1758H17.7072V10.2615H14.4178V14.7372ZM4.91781 21.9999C4.37156 21.9999 3.91556 21.817 3.54981 21.4513C3.18406 21.0855 3.00079 20.6287 3 20.0809V4.91891C3 4.37187 3.18327 3.91547 3.54981 3.54972C3.91635 3.18397 4.37275 3.0007 4.919 2.99991H20.0822C20.6284 2.99991 21.0848 3.18318 21.4514 3.54972C21.8179 3.91626 22.0008 4.37266 22 4.91891V20.0821C22 20.6283 21.8171 21.0847 21.4514 21.4513C21.0856 21.8178 20.6288 22.0007 20.081 21.9999H4.91781ZM4.91781 20.8124H20.0822C20.2643 20.8124 20.4317 20.7364 20.5845 20.5844C20.7373 20.4324 20.8133 20.2646 20.8125 20.0809V4.91891C20.8125 4.73603 20.7365 4.5682 20.5845 4.41541C20.4325 4.26262 20.2647 4.18662 20.081 4.18741H4.919C4.73612 4.18741 4.56829 4.26341 4.4155 4.41541C4.26271 4.56741 4.18671 4.73524 4.1875 4.91891V20.0821C4.1875 20.2642 4.2635 20.4316 4.4155 20.5844C4.5675 20.7372 4.73494 20.8132 4.91781 20.8124Z" fill="#0051FF"/>
</svg>
